<?xml version="1.0" encoding="UTF-8"?>
<!-- Created with Inkscape (http://www.inkscape.org/) -->
<svg width="93.028mm" height="17.635mm" version="1.1" viewBox="0 0 93.028 17.635" xmlns="http://www.w3.org/2000/svg" xmlns:cc="http://creativecommons.org/ns#" xmlns:dc="http://purl.org/dc/elements/1.1/" xmlns:rdf="http://www.w3.org/1999/02/22-rdf-syntax-ns#">
 <defs>
  <linearGradient id="id0" x1="110.67" x2="334.32" y1="414.8" y2="30.19" gradientTransform="matrix(.037416 0 0 .037416 -7.9944 117.71)" gradientUnits="userSpaceOnUse">
   <stop stop-color="#D72430" offset="0"/>
   <stop stop-color="#FDA259" offset="1"/>
  </linearGradient>
 </defs>
 <metadata>
  <rdf:RDF>
   <cc:Work rdf:about="">
    <dc:format>image/svg+xml</dc:format>
    <dc:type rdf:resource="http://purl.org/dc/dcmitype/StillImage"/>
    <dc:title/>
   </cc:Work>
  </rdf:RDF>
 </metadata>
 <g transform="translate(-49.589 -96.962)">
  <g transform="translate(57.596 -20.735)" clip-rule="evenodd" shape-rendering="geometricPrecision">
   <g fill="#474443">
    <g stroke-width=".037416">
     <path d="m20.255 128.45c0 1.0102-0.33674 1.8334-1.0851 2.3946-0.7109 0.59865-1.7585 0.89798-3.0307 0.89798-1.1973 0-2.2824-0.2245-3.1804-0.67349v-2.245c0.74832 0.33674 1.3844 0.59865 1.9082 0.7109 0.52382 0.14966 1.0102 0.2245 1.4218 0.2245 0.56124 0 0.9354-0.11225 1.2347-0.29933 0.26191-0.18708 0.41158-0.48641 0.41158-0.89798 0-0.2245-0.07483-0.41158-0.18708-0.59866-0.11225-0.14966-0.29933-0.33674-0.56124-0.4864-0.2245-0.14967-0.7109-0.41158-1.4218-0.74832s-1.2347-0.63607-1.5715-0.9354c-0.33674-0.29932-0.59866-0.63607-0.82315-1.0476-0.18708-0.37416-0.29933-0.86057-0.29933-1.3844 0-0.97281 0.33674-1.7586 1.0102-2.3198 0.67349-0.59865 1.6089-0.86056 2.8062-0.86056 0.56124 0 1.1225 0.0748 1.6463 0.18708 0.56124 0.14966 1.0851 0.33674 1.6837 0.59865l-0.78573 1.8708c-0.59865-0.26191-1.0851-0.44899-1.4592-0.52383-0.41158-0.11224-0.78573-0.14966-1.1599-0.14966-0.44899 0-0.82315 0.11225-1.0476 0.29933-0.26191 0.22449-0.37416 0.4864-0.37416 0.82315 0 0.22449 0.07483 0.41157 0.14966 0.56124 0.11225 0.14966 0.26191 0.29932 0.48641 0.44899 0.18708 0.14966 0.7109 0.41157 1.4966 0.78573 1.0476 0.52382 1.7585 1.0102 2.1701 1.4966 0.37416 0.52382 0.56124 1.1225 0.56124 1.8708z" image-rendering="optimizeQuality"/>
     <path d="m25.717 129.87c0.41158 0 0.9354-0.11224 1.4966-0.29932v1.7585c-0.59865 0.26192-1.3096 0.41158-2.1701 0.41158-0.9354 0-1.6089-0.26191-2.0205-0.7109-0.44899-0.48641-0.63607-1.1973-0.63607-2.1327v-4.1532h-1.1225v-1.0102l1.2721-0.78574 0.67349-1.796h1.4966v1.8334h2.3946v1.7586h-2.3946v4.1158c0 0.33674 0.11225 0.59865 0.29933 0.74831 0.18708 0.14967 0.41158 0.26191 0.7109 0.26191z" image-rendering="optimizeQuality"/>
     <path d="m34.398 131.55-0.44899-1.1599h-0.07483c-0.37416 0.52382-0.78573 0.86056-1.1973 1.0476-0.41157 0.18708-0.97281 0.29933-1.6463 0.29933-0.82315 0-1.4592-0.26191-1.9456-0.7109-0.48641-0.48641-0.7109-1.1599-0.7109-2.0205 0-0.9354 0.33674-1.6089 0.97281-2.0205 0.63607-0.44899 1.5715-0.67349 2.881-0.7109l1.4966-0.0748v-0.37416c0-0.86057-0.44899-1.3096-1.347-1.3096-0.67349 0-1.4966 0.2245-2.432 0.63607l-0.74832-1.5715c0.97281-0.52382 2.0579-0.78573 3.2552-0.78573 1.1599 0 2.0579 0.26191 2.6565 0.74832 0.63607 0.52382 0.9354 1.2721 0.9354 2.2824v5.7246zm-0.67349-3.9661-0.9354 0.0374c-0.67349 0-1.1599 0.14966-1.4966 0.37416s-0.52382 0.56124-0.52382 1.0102c0 0.67348 0.41158 1.0102 1.1599 1.0102 0.52382 0 0.97281-0.14967 1.3096-0.48641 0.29933-0.29933 0.48641-0.7109 0.48641-1.2347z" image-rendering="optimizeQuality"/>
     <path d="m42.068 129.87c0.41158 0 0.89798-0.11224 1.4966-0.29932v1.7585c-0.59865 0.26192-1.3096 0.41158-2.1701 0.41158-0.9354 0-1.6089-0.26191-2.0579-0.7109-0.41158-0.48641-0.63607-1.1973-0.63607-2.1327v-4.1532h-1.1225v-1.0102l1.3096-0.78574 0.67349-1.796h1.4966v1.8334h2.3946v1.7586h-2.3946v4.1158c0 0.33674 0.07483 0.59865 0.26191 0.74831 0.18708 0.14967 0.44899 0.26191 0.74832 0.26191z" image-rendering="optimizeQuality"/>
     <path d="m45.174 120.74c0-0.74832 0.44899-1.1225 1.2721-1.1225 0.86056 0 1.2721 0.37416 1.2721 1.1225 0 0.37416-0.07483 0.67348-0.29933 0.86056-0.2245 0.18708-0.52382 0.29933-0.97281 0.29933-0.82315 0-1.2721-0.37416-1.2721-1.1599zm2.4694 10.813h-2.3572v-8.5682h2.3572z" image-rendering="optimizeQuality"/>
     <path d="m53.592 131.74c-2.6939 0-4.0409-1.4966-4.0409-4.4151 0-1.4592 0.37416-2.5817 1.1225-3.3674 0.7109-0.74831 1.7585-1.1225 3.1055-1.1225 1.0102 0 1.8708 0.18708 2.6939 0.56124l-0.7109 1.8334c-0.37416-0.14966-0.7109-0.29932-1.0102-0.37416-0.33674-0.11224-0.63607-0.14966-0.97281-0.14966-1.1973 0-1.8334 0.86057-1.8334 2.5817 0 1.6837 0.63607 2.5443 1.8334 2.5443 0.44899 0 0.86057-0.0748 1.2721-0.18708 0.37416-0.11225 0.74832-0.29933 1.1225-0.56124v1.983c-0.37416 0.26191-0.74832 0.41158-1.1225 0.52383-0.41158 0.0748-0.89798 0.14966-1.4592 0.14966z" image-rendering="optimizeQuality"/>
     <path d="m63.62 131.55-0.44899-1.1599h-0.03742c-0.41158 0.52382-0.82315 0.86056-1.2347 1.0476-0.41157 0.18708-0.97281 0.29933-1.6089 0.29933-0.86056 0-1.4966-0.26191-1.983-0.7109-0.44899-0.48641-0.7109-1.1599-0.7109-2.0205 0-0.9354 0.33674-1.6089 0.97281-2.0205 0.63607-0.44899 1.6089-0.67349 2.881-0.7109l1.4966-0.0748v-0.37416c0-0.86057-0.44899-1.3096-1.347-1.3096-0.67349 0-1.4966 0.2245-2.3946 0.63607l-0.78573-1.5715c0.97281-0.52382 2.0953-0.78573 3.2926-0.78573 1.1599 0 2.0205 0.26191 2.6565 0.74832 0.59865 0.52382 0.89798 1.2721 0.89798 2.2824v5.7246zm-0.67349-3.9661-0.89798 0.0374c-0.67349 0-1.1973 0.14966-1.5341 0.37416-0.33674 0.2245-0.48641 0.56124-0.48641 1.0102 0 0.67348 0.37416 1.0102 1.1225 1.0102 0.56124 0 0.97281-0.14967 1.3096-0.48641 0.33674-0.29933 0.48641-0.7109 0.48641-1.2347z" image-rendering="optimizeQuality"/>
    </g>
    <polygon transform="matrix(.037416 0 0 .037416 -7.9944 117.71)" points="2023 370 2023 51 2085 51 2085 370" image-rendering="optimizeQuality"/>
    <polygon transform="matrix(.037416 0 0 .037416 -7.9944 117.71)" points="2151 370 2151 51 2214 51 2214 370" image-rendering="optimizeQuality"/>
    <path d="m76.079 122.99h2.5443l1.6463 4.8266c0.11225 0.41158 0.2245 0.89798 0.26191 1.4966h0.03742c0.07483-0.52383 0.18708-1.0476 0.33674-1.4966l1.6089-4.8266h2.5069l-3.6293 9.6907c-0.33674 0.89798-0.82315 1.5715-1.4218 1.983-0.63607 0.44899-1.347 0.67348-2.1701 0.67348-0.41158 0-0.82315-0.0374-1.1973-0.11224v-1.8708c0.29933 0.0748 0.59865 0.11225 0.9354 0.11225 0.41158 0 0.74832-0.11225 1.0851-0.37416 0.29933-0.26191 0.52382-0.63607 0.7109-1.1599l0.14966-0.41158z" image-rendering="optimizeQuality" stroke-width=".037416"/>
   </g>
   <path d="m-6.8719 121.86c2.3198-4.0035 7.4083-5.3505 11.374-3.0307 4.0035 2.3198 5.3505 7.4083 3.0307 11.374-2.3198 4.0035-7.4083 5.3505-11.374 3.0307-4.0035-2.3198-5.3505-7.4083-3.0307-11.374z" fill="url(#id0)" fill-rule="evenodd" image-rendering="optimizeQuality" stroke-width=".037416"/>
   <circle cx=".31192" cy="126.02" r="7.3335" fill="none" image-rendering="optimizeQuality" stroke="#fefefe" stroke-width=".4064"/>
   <g transform="matrix(.045514 0 0 .045514 -9.7958 115.81)" fill-rule="evenodd" image-rendering="optimizeQuality">
    <polygon points="310 102 156 222 208 240 135 346 283 226 236 207" fill="#fefefe"/>
   </g>
  </g>
 </g>
</svg>
